<svg width="152" height="42" fill="none" xmlns="http://www.w3.org/2000/svg"><path d="M1 41h134.59S151 41 151 27.486V1.003H16.122S1 .483 1 14.256V41z" fill="#F58220" stroke="#fff"/><path d="M94.015 21.013c0-6.095 5.496-11.033 12.266-11.033 6.769 0 12.266 4.938 12.266 11.033 0 6.096-5.497 11.033-12.266 11.033-6.77 0-12.266-4.937-12.266-11.033z" fill="#0058A9"/><path d="M117.851 21.013c0-6.095 5.496-11.033 12.266-11.033 6.769 0 12.266 4.938 12.266 11.033 0 6.096-5.497 11.033-12.266 11.033-6.77 0-12.266-4.937-12.266-11.033z" fill="#0058A9"/><path d="M98.143 22.832v.732c0 2.74 1.657 3.048 4.225 3.19.912.047 1.824.047 2.736.047 1.753 0 3.481-.047 5.233-.118 3.097-.213 4.537-.756 4.537-3.733 0-3.119-1.824-3.662-4.945-3.662-.912 0-1.8-.023-2.688-.023l-2.737-.048c-.936-.047-2.328.095-2.328-1.086 0-.733.768-.875 1.488-.898 1.056-.047 2.065-.095 3.121-.095.648 0 1.296 0 1.968.024.912.047 1.512.236 1.56 1.134h4.009c-.024-.756 0-1.583-.432-2.292-.96-1.417-2.809-1.44-4.465-1.465l-2.856-.047c-1.561 0-4.585.024-6.025.355-2.137.496-2.497 1.724-2.497 3.496 0 2.268.817 3.331 3.433 3.497 2.232.118 4.489.118 6.721.118h.672c.888 0 1.896.094 1.896 1.063 0 1.04-.912 1.016-1.8 1.04-.936.047-1.824.07-2.736.07-.648 0-1.297-.023-1.921-.023-.936-.048-2.088-.024-2.088-1.11 0-.072 0-.119-.024-.19h-4.057v.024z" fill="#fff"/><path fill-rule="evenodd" clip-rule="evenodd" d="M135.973 26.705l-1.272-2.197h-8.713l-1.32 2.197h-4.537l7.489-12.049h5.521l7.321 12.05h-4.489zm-5.665-9.473l-2.88 4.772h5.761l-2.881-4.773z" fill="#fff"/><path d="M7.625 17.824h5.569v8.741h3.96v-8.741h5.57V14.94h-15.1v2.883zm15.579 8.741h14.378v-2.811H27.164V21.91h9.65V19.5h-9.65v-1.866h10.202V14.94H23.204v11.624zm15.53 0h3.96V22.1h1.753l5.713 4.465h5.617l-7.825-5.954 6.985-5.67H49.56l-5.017 4.253h-1.848V14.94h-3.96v11.624zm17.259 0h3.96v-8.458h.048l7.441 8.458h6.146V14.941h-3.961v8.435h-.048l-7.441-8.435h-6.145v11.624z" fill="#fff"/><path fill-rule="evenodd" clip-rule="evenodd" d="M80.429 26.684c-3.553 0-5.69-.803-5.69-4.205v-3.473c0-3.402 2.113-4.205 5.69-4.205h6.36c3.553 0 5.69.803 5.69 4.205v3.473c0 3.402-2.113 4.205-5.69 4.205h-6.36zm.84-8.883c-2.089 0-2.473.874-2.473 2.316h-.024v1.252c0 1.677.384 2.315 2.257 2.315h5.065c1.896 0 2.28-.638 2.28-2.315v-1.252c0-1.442-.384-2.316-2.472-2.316h-4.633z" fill="#fff"/></svg>